<?xml version="1.0" encoding="utf-8"?>
<svg version="1.1" viewBox="0 0 755.9055 755.9055" width="755.9055" height="755.9055" style="stroke:none;stroke-linecap:butt;stroke-linejoin:miter;stroke-width:1;stroke-dasharray:none;fill:#000000;fill-opacity:1;fill-rule:evenodd" font-family="Arial" font-size="15" xmlns:xlink="http://www.w3.org/1999/xlink" xmlns="http://www.w3.org/2000/svg">
  <path d="M658.5646,163.488C660.6641,165.0663 661.6718,166.5216 661.6718,167.8949C661.6718,168.7763 661.3569,169.5757 660.6641,170.2521C659.5094,171.5844 658.1238,172.2814 656.5282,172.2814C655.1426,172.2814 653.61,171.8099 652.0144,170.8875C613.2378,149.4269 570.5352,132.6397 523.7597,120.5258C477.0262,108.3914 428.5922,102.3447 378.5625,102.3447C346.735,102.3447 314.3407,105.1119 281.2536,110.6461C248.2084,116.1599 215.1842,124.6662 182.265,136.1447C179.9766,137.0261 177.6253,137.846 175.3159,138.5019C173.0275,139.2193 170.5292,140.0802 167.9889,141.187C165.7005,142.1299 163.3491,142.3554 161.0397,141.9044C158.7513,141.4535 157.0928,140.4696 156.148,138.8708C155.5182,137.723 155.0773,136.4727 154.8254,135.1403C154.8254,132.4552 156.148,130.303 158.9613,128.7247C162.7193,126.0805 166.6032,123.6004 170.6132,121.4892C174.7071,119.3165 178.57,117.1437 182.265,114.8685C212.1191,99.1677 244.8913,87.4022 280.6867,79.6133C316.4611,71.8038 351.1439,67.9298 384.7979,67.9298C438.0816,67.9298 487.9853,76.3952 534.3199,93.2644C580.7175,110.1132 622.0764,133.5415 658.5646,163.488zM333.7395,415.2763C333.7395,421.9174 333.8025,428.743 334.0754,435.8145C334.3274,442.8656 336.4898,449.1582 340.6257,454.6105C344.3837,459.8578 349.2334,463.6293 355.2798,465.9045C361.3261,468.1592 367.2885,469.3275 373.3559,469.3275L377.8487,469.3275C388.2409,468.4257 397.7094,465.2691 406.1911,459.9398C414.6519,454.549 420.1104,446.5141 422.6717,435.8145C423.1126,433.5188 424.1203,431.4281 425.7369,429.4809C427.3325,427.5336 429.4319,426.1398 432.1612,425.197L489.119,432.248C491.4073,432.699 493.5908,433.7238 495.7532,435.2611C497.9156,436.8189 498.5244,439.4016 497.6637,442.9681C494.4095,457.7056 488.7621,470.1474 480.7212,480.1706C472.6384,490.2347 463.0859,498.4541 452.0219,504.8083C440.9368,511.1829 428.9281,515.8563 415.9325,518.8899C402.937,521.903 389.8365,523.8502 376.715,524.7521L364.6223,524.7521C350.1151,524.7521 334.5793,522.7844 317.9727,518.8899C301.4082,514.9954 287.027,508.0059 274.8293,497.9622C267.6912,491.977 262.3376,485.3974 258.7056,478.3873C255.1365,471.3568 252.7222,463.9778 251.3156,456.2913C249.9299,448.6048 249.2371,440.5084 249.2371,432.043L249.2371,405.7041L249.2371,320.21C249.2371,307.1943 246.9277,297.1916 242.351,290.1201C237.7742,283.028 232.6096,276.3254 227.0251,269.9713C225.2405,267.7576 224.3378,265.4209 224.3378,262.9407C224.3378,260.5015 225.4925,258.3903 227.7179,256.6685C233.4493,251.7287 240.8394,245.969 249.9299,239.3894C259.0205,232.8097 266.5995,227.05 272.6459,222.1102C276.8447,219.548 281.9464,219.3226 287.9928,221.4748C297.5452,228.9768 304.1584,234.839 307.9164,238.9384L322.1716,255.0698C331.7241,246.2354 340.9406,239.1844 349.9892,233.8961C359.0378,228.6693 368.3173,224.7133 377.8697,222.1102C390.5503,219.548 404.7215,218.2362 420.2784,218.2362C444.9048,218.2362 465.5423,225.0208 482.2118,238.5285C498.8394,252.0567 507.1531,272.3284 507.1531,299.3643C507.1531,321.6858 501.4427,340.3383 489.9797,355.3013C478.5168,370.2233 463.2539,381.4353 444.023,388.9783C434.1557,393.0778 423.6585,396.2138 412.4475,398.3661C401.2575,400.5388 389.5216,402.322 377.4498,403.6953C369.43,404.5767 361.788,405.2736 354.461,405.7451C347.1549,406.196 340.2058,406.8929 333.7815,407.7948L333.7815,415.2763C333.7675,415.2763 333.7535,415.2763 333.7395,415.2763zM333.7395,363.6642C341.3185,363.6642 348.9605,363.4387 356.4764,363.0083C363.9714,362.5369 371.1095,361.6145 377.8487,360.2412C390.1304,356.6132 400.6276,350.9149 409.4873,343.167C418.2629,335.419 422.6717,324.0225 422.6717,308.9365C422.6717,296.9047 419.4386,287.189 412.9303,279.8919C406.4221,272.5949 397.5205,268.9464 386.1835,268.9464C384.357,268.9464 382.6774,269.1104 381.3548,269.4383C379.9482,269.7868 378.7935,269.9713 377.8487,269.9713C363.2156,273.1278 352.2566,281.2243 344.8246,294.24C338.1273,304.0582 334.5793,313.5074 334.2644,322.6287C333.8865,331.7295 333.7605,341.6502 333.7605,352.3702L333.7605,363.6642C333.7535,363.6642 333.7465,363.6642 333.7395,363.6642zM142.1658,90.8458C144.5801,88.6116 146.8055,87.9147 148.8,88.8165C150.7105,89.7184 151.2773,91.5222 150.3116,94.2073L143.6984,109.7442C141.158,116.0779 138.8696,122.3295 136.6442,128.5197C134.4188,134.7099 132.9492,140.3261 132.3194,145.43C131.6266,150.4928 132.1934,154.1413 134.0409,156.396C136.8542,160.0035 143.0895,162.0122 152.7679,162.4837C154.6154,162.4837 156.5889,162.4837 158.6883,162.4837C166.5822,162.4837 174.4551,162.1557 182.307,161.4588C186.5059,160.5774 190.5158,160.1265 194.4628,160.1265C198.3467,160.1265 201.9578,159.655 205.2329,158.7532C207.9622,158.7532 209.6207,159.5731 210.0616,161.1308C210.5025,162.7091 209.4108,164.4309 206.6185,166.2347C199.4174,170.7441 191.3346,174.4336 182.307,177.3852C174.2242,179.1479 166.0784,180.3778 157.9955,181.0747C152.9149,181.5051 148.2121,181.7716 143.7403,181.7716C140.5702,181.7716 137.3161,181.6486 134.1249,181.4231C126.42,180.9517 120.1217,180.1728 115.146,179.0659C110.1913,177.8976 106.8742,176.6678 105.0897,175.3354C104.6488,174.4336 104.1449,173.2447 103.6411,171.7894C103.6411,171.7894 102.8643,168.4689 102.8643,166.2347L102.8643,163.488C102.8643,159.0196 103.809,153.4854 105.6565,146.9468C107.4411,140.4491 109.8554,133.849 112.7946,127.2079C115.7128,120.5258 119.7228,113.9462 124.6774,107.4075C129.7581,100.8894 135.5525,95.3347 142.1658,90.8458z" style="fill:#030104;" />
  <path d="M114.2702,185.1365L654.1972,185.1365C672.2599,185.1365 687.1231,200.9272 687.1231,220.1168L687.1231,528.5421C687.1231,547.7317 672.2599,563.5224 654.1972,563.5224L114.2702,563.5224C96.2075,563.5224 81.3442,547.7317 81.3442,528.5421L81.3442,220.1168C81.3442,200.9272 96.2075,185.1365 114.2702,185.1365z" style="stroke:#FF9900;stroke-width:34;fill:#FFFFFF;" />
  <line x1="387.2932" y1="423.8075" x2="98.4385" y2="204.4324" style="stroke:#FF9900;stroke-width:34;" />
  <line x1="677.5076" y1="205.6707" x2="367.4536" y2="423.5977" style="stroke:#FF9900;stroke-width:34;" />
  <line x1="398.5859" y1="399.2819" x2="360.753" y2="402.6096" style="stroke:#FF9900;stroke-width:34;" />
  <path d="M90.5841,582.8077C88.4149,581.242 87.3737,579.7984 87.3737,578.436C87.3737,577.5617 87.699,576.7687 88.4149,576.0977C89.608,574.7761 91.0396,574.0847 92.6882,574.0847C94.1199,574.0847 95.7035,574.5524 97.3521,575.4674C137.4175,596.7562 181.5394,613.4091 229.8696,625.426C278.1563,637.4632 328.2002,643.4615 379.8926,643.4615C412.778,643.4615 446.249,640.7165 480.4359,635.2266C514.5793,629.7569 548.7011,621.3187 582.7145,609.9321C585.0789,609.0578 587.5084,608.2445 589.8946,607.5938C592.259,606.8821 594.8404,606.0281 597.4651,604.9301C599.8296,603.9948 602.2591,603.7712 604.6453,604.2185C607.0097,604.6658 608.7234,605.6418 609.6995,607.2278C610.3503,608.3665 610.8058,609.6068 611.0661,610.9284C611.0661,613.5921 609.6995,615.7271 606.7928,617.2927C602.9099,619.9157 598.8968,622.376 594.7536,624.4703C590.5236,626.6256 586.5323,628.781 582.7145,631.0379C551.8682,646.6131 518.0067,658.2844 481.0216,666.011C444.0581,673.7579 408.2226,677.6009 373.4501,677.6009C318.3953,677.6009 266.833,669.2033 218.9584,652.4691C171.0187,635.7552 128.2851,612.5144 90.5841,582.8077zM426.2054,333.035C426.2054,326.4471 426.1404,319.6761 425.8584,312.6612C425.598,305.6666 423.3638,299.4243 419.0904,294.0157C415.2075,288.8104 410.1966,285.0691 403.9493,282.8121C397.7019,280.5754 391.5413,279.4165 385.2723,279.4165L380.6302,279.4165C369.8925,280.3111 360.1094,283.4424 351.3457,288.729C342.6038,294.0767 336.9638,302.0473 334.3174,312.6612C333.8618,314.9385 332.8206,317.0125 331.1503,318.9441C329.5017,320.8758 327.3325,322.2584 324.5125,323.1938L265.6616,316.1992C263.2972,315.7518 261.0412,314.7352 258.8069,313.2102C256.5726,311.6649 255.9435,309.1029 256.8329,305.5649C260.1952,290.9454 266.0304,278.6031 274.3385,268.6602C282.69,258.6766 292.5599,250.523 303.9917,244.2197C315.4452,237.8961 327.8531,233.2602 341.2806,230.2508C354.708,227.2619 368.2439,225.3302 381.8015,224.4356L394.2962,224.4356C409.2855,224.4356 425.3377,226.3875 442.4962,230.2508C459.6114,234.1142 474.4705,241.0478 487.0737,251.011C494.449,256.9483 499.9805,263.4752 503.7333,270.4292C507.4209,277.4035 509.9155,284.7234 511.3689,292.3483C512.8006,299.9733 513.5164,308.0049 513.5164,316.4025L513.5164,342.5306L513.5164,427.3403C513.5164,440.2518 515.9026,450.1744 520.6315,457.1893C525.3604,464.2246 530.6966,470.8736 536.4668,477.1768C538.3106,479.3728 539.2433,481.6908 539.2433,484.1511C539.2433,486.5708 538.0503,488.6651 535.7509,490.3731C529.8289,495.2734 522.1933,500.987 512.8006,507.5139C503.4079,514.0409 495.577,519.7545 489.3297,524.6548C484.9912,527.1964 479.72,527.4201 473.4727,525.2851C463.6027,517.8432 456.7697,512.0279 452.8868,507.9613L438.1578,491.9591C428.2879,500.7227 418.765,507.7173 409.4157,512.9632C400.0664,518.1482 390.4784,522.0725 380.6085,524.6548C367.5064,527.1964 352.8642,528.4978 336.7903,528.4978C311.3454,528.4978 290.022,521.7675 272.7984,508.3679C255.6182,494.948 247.0281,474.8385 247.0281,448.0191C247.0281,425.8763 252.9283,407.3731 264.7723,392.5299C276.6162,377.7273 292.3864,366.6051 312.2564,359.1225C322.4518,355.0558 333.2978,351.9449 344.8815,349.8099C356.4434,347.6546 368.5693,345.8856 381.0423,344.5233C389.3287,343.6489 397.2247,342.9576 404.7953,342.4899C412.3441,342.0426 419.5242,341.3513 426.162,340.4566L426.162,333.035C426.1765,333.035 426.191,333.035 426.2054,333.035zM426.2054,384.2339C418.3746,384.2339 410.4786,384.4576 402.7128,384.8846C394.9687,385.3523 387.5934,386.2673 380.6302,387.6296C367.9402,391.2285 357.0942,396.8812 347.9401,404.5671C338.8727,412.253 334.3174,423.5583 334.3174,438.5235C334.3174,450.4591 337.658,460.097 344.3825,467.3356C351.1071,474.5742 360.3046,478.1935 372.0184,478.1935C373.9056,478.1935 375.641,478.0308 377.0076,477.7055C378.461,477.3598 379.654,477.1768 380.6302,477.1768C395.7496,474.0455 407.0729,466.0139 414.752,453.1024C421.6718,443.3628 425.3377,433.9892 425.6631,424.9409C426.0536,415.913 426.1837,406.0718 426.1837,395.4375L426.1837,384.2339C426.191,384.2339 426.1982,384.2339 426.2054,384.2339zM624.1465,654.8684C621.6519,657.0847 619.3525,657.7761 617.2918,656.8814C615.3178,655.9867 614.7321,654.1974 615.73,651.5338L622.563,636.1212C625.1877,629.8383 627.5522,623.6367 629.8516,617.496C632.1509,611.3554 633.6694,605.7841 634.3202,600.7212C635.036,595.6989 634.4503,592.0796 632.5414,589.8429C629.6346,586.2643 623.1921,584.2716 613.192,583.804C611.2831,583.804 609.244,583.804 607.0748,583.804C598.9185,583.804 590.784,584.1293 582.6711,584.8206C578.3326,585.695 574.1894,586.1423 570.1113,586.1423C566.0983,586.1423 562.3672,586.61 558.9832,587.5046C556.1632,587.5046 554.4496,586.6913 553.994,585.146C553.5385,583.5803 554.6665,581.8723 557.5515,580.083C564.992,575.6097 573.3434,571.9497 582.6711,569.0218C591.0226,567.2731 599.4391,566.0531 607.7906,565.3618C613.0401,564.9348 617.8992,564.6705 622.5196,564.6705C625.7951,564.6705 629.1574,564.7925 632.4546,565.0161C640.4157,565.4838 646.9233,566.2565 652.0643,567.3545C657.1837,568.5134 660.6111,569.7334 662.4549,571.0551C662.9104,571.9497 663.431,573.1291 663.9517,574.5727C663.9517,574.5727 664.7543,577.8667 664.7543,580.083L664.7543,582.8077C664.7543,587.2403 663.7781,592.7302 661.8692,599.2165C660.0254,605.6621 657.5308,612.2094 654.4939,618.7974C651.4787,625.426 647.3355,631.9529 642.2161,638.4392C636.9666,644.9052 630.9796,650.4154 624.1465,654.8684z" style="fill:#030104;" />
</svg>